<?xml version="1.0" encoding="UTF-8" standalone="no"?>
<!-- Created with Inkscape (http://www.inkscape.org/) -->

<svg
   version="1.1"
   id="svg182"
   width="110.90546"
   height="196.13083"
   viewBox="0 0 110.90546 196.13083"
   sodipodi:docname="8680909cd00073b895c496a3e2a8ad65.jpg"
   xmlns:inkscape="http://www.inkscape.org/namespaces/inkscape"
   xmlns:sodipodi="http://sodipodi.sourceforge.net/DTD/sodipodi-0.dtd"
   xmlns="http://www.w3.org/2000/svg"
   xmlns:svg="http://www.w3.org/2000/svg">
  <defs
     id="defs186" />
  <sodipodi:namedview
     id="namedview184"
     pagecolor="#ffffff"
     bordercolor="#666666"
     borderopacity="1.0"
     inkscape:showpageshadow="2"
     inkscape:pageopacity="0.0"
     inkscape:pagecheckerboard="0"
     inkscape:deskcolor="#d1d1d1"
     showgrid="false" />
  <g
     inkscape:groupmode="layer"
     inkscape:label="Image"
     id="g188"
     transform="translate(-41.404416,-0.50601557)">
    <path
       d="m 142.63085,193.63545 c -3.23835,-3.13744 -8.94143,-6.09277 -17.39557,-9.01437 -7.95182,-2.748 -14.29392,-6.98018 -13.73872,-9.16805 0.3591,-1.4151 0.029,-1.65603 -1.57258,-1.14772 -2.37293,0.75314 -10.027365,-2.40059 -9.52009,-3.9224 0.18916,-0.5675 2.50109,-2.51838 5.13762,-4.33531 2.63653,-1.81692 4.40706,-3.30206 3.9345,-3.30031 -0.47255,0.002 -3.52456,1.77526 -6.78223,3.94112 -5.81665,3.86721 -5.986355,3.91148 -9.448632,2.46485 -1.939079,-0.8102 -3.665246,-1.61273 -3.835925,-1.78341 -0.74021,-0.74021 2.991735,-17.34776 4.381662,-19.49886 0.843363,-1.30522 1.03351,-2.06419 0.422549,-1.68659 -1.782608,1.10171 -3.670982,5.6091 -5.052427,12.05971 -1.378375,6.43627 -4.289922,11.5 -6.612282,11.5 -0.787548,0 -1.431906,-0.42961 -1.431906,-0.95469 0,-0.52507 -1.4625,-1.23195 -3.25,-1.57083 -1.7875,-0.33888 -4.725508,-1.93955 -6.528906,-3.55705 -2.841514,-2.54859 -3.134122,-3.23947 -2.193537,-5.17916 l 1.085368,-2.23827 -1.826412,2.07668 c -1.484727,1.68818 -2.33715,1.90644 -4.556462,1.16667 -1.501528,-0.50051 -2.730051,-1.31556 -2.730051,-1.81123 0,-0.49567 -2.243012,-0.71483 -4.984471,-0.48703 -2.741459,0.2278 -5.264333,-0.0386 -5.606386,-0.5921 -0.342053,-0.55345 0.749515,-3.77323 2.425707,-7.15507 1.676192,-3.38183 2.914918,-6.28149 2.752725,-6.44368 -0.162194,-0.16219 -1.465431,1.4739 -2.896082,3.63576 -2.389793,3.61122 -2.958871,3.92525 -7.00254,3.86412 l -4.401356,-0.0665 5.002559,-10.09379 c 6.403068,-12.91963 8.423459,-15.5802 14.903786,-19.62618 6.038807,-3.77032 11.803834,-8.85349 11.810685,-10.41378 0.0025,-0.57961 1.393316,-2.53555 3.090601,-4.34654 1.935948,-2.06564 2.857347,-3.88849 2.47248,-4.89144 -0.476015,-1.240481 -0.315525,-1.351451 0.716186,-0.4952 1.02714,0.85245 1.727793,0.42958 3.079428,-1.858561 0.962363,-1.62919 2.355288,-2.96213 3.095389,-2.96213 0.740101,0 1.85457,-1.4625 2.476596,-3.25 0.622027,-1.7875 2.964006,-5.86489 5.204397,-9.06088 4.400742,-6.27778 7.156417,-14.587198 6.185589,-18.651958 -0.333285,-1.395439 -1.291395,-3.887162 -2.129133,-5.537162 -0.837738,-1.65 -1.865891,-6.375 -2.284785,-10.5 -0.418893,-4.125 -1.079197,-9.1875 -1.467342,-11.25 -0.875628,-4.65286 0.612059,-4.917518 2.810586,-0.5 l 1.617472,3.25 0.127341,-4 c 0.102556,-3.22148 0.300231,-3.61074 1.015644,-2 0.488567,1.1 1.851935,3.125 3.029705,4.5 1.74949,2.042467 2.00932,2.133974 1.41971,0.5 -0.39693,-1.1 -0.95367,-3.077358 -1.23722,-4.394129 -0.28354,-1.316771 -1.1421,-3.116771 -1.90792,-4 -4.512449,-5.20431 -6.388074,-8.069473 -4.911633,-7.502909 1.924566,0.738525 2.137929,-1.710286 0.428562,-4.918703 -1.051972,-1.974513 -1.003959,-2.052468 0.5,-0.811814 0.915046,0.754844 1.66372,2.792216 1.66372,4.527493 0,3.209213 2.343711,7.600062 4.056701,7.600062 0.51882,0 0.9433,-0.926558 0.9433,-2.059017 0,-1.132459 0.45,-1.780902 1,-1.440983 1.65638,1.023702 1.1249,-1.69973 -0.75,-3.843154 -1.06771,-1.220628 -1.1964,-1.674719 -0.33006,-1.164695 1.10489,0.650468 1.2486,0.411267 0.64772,-1.078106 -2.37018,-5.874769 -2.58789,-7.16717 -1.59746,-9.48305 0.93519,-2.1867264 0.98094,-2.1044324 0.45527,0.819005 -0.32141,1.7875 -0.19439,3.25 0.28227,3.25 0.47666,0 0.93644,0.926452 1.02173,2.058782 0.0853,1.13233 1.0551,3.49483 2.15512,5.25 1.10001,1.75517 2.93145,5.17326 4.06985,7.595756 1.1384,2.422495 2.27046,4.203893 2.51569,3.958662 0.24523,-0.245232 -0.44766,-4.021527 -1.53976,-8.391767 -1.09211,-4.37024 -1.80041,-8.626638 -1.57401,-9.458662 0.31455,-1.155968 0.439,-1.100015 0.52764,0.237229 0.0638,0.9625 0.52387,1.75 1.02238,1.75 0.49851,0 0.67102,-0.9 0.38337,-2 -0.60887,-2.328327 -0.082,-2.462103 2.95385,-0.75 3.12565,1.762752 4.52097,3.75654 5.22421,7.464921 0.33531,1.768206 0.99361,3.452216 1.46288,3.742244 0.46928,0.290029 0.43624,-1.328575 -0.0734,-3.596896 -0.50966,-2.268322 -0.77877,-4.272104 -0.59802,-4.452851 0.51757,-0.517595 8.74073,10.317775 8.74073,11.517389 0,0.591356 0.45,1.075193 1,1.075193 1.53715,0 1.1969,-2.9793 -1.0005,-8.760727 -2.1462,-5.64671 -2.65035,-8.793776 -0.9995,-6.239273 0.53316,0.825 0.97627,1.1074 0.98469,0.627555 0.008,-0.479844 0.69031,-0.312244 1.51531,0.372445 1.91009,1.585235 1.88598,1.080986 -0.14278,-2.985757 -0.90353,-1.811169 -1.71389,-5.5338774 -1.80079,-8.2726854 l -0.15801,-4.97965103 2.31888,2.86904703 c 4.77826,5.911934 9.70074,18.8471244 15.29466,40.1910464 2.3408,8.931429 2.97181,12.899306 2.29324,14.420045 -0.66419,1.488515 -0.23543,4.820974 1.47584,11.470566 l 2.41201,9.372519 -2.59652,5.30711 c -1.42809,2.91891 -2.61067,6.16225 -2.62795,7.20743 -0.0173,1.04518 -1.18085,2.73793 -2.5857,3.76165 -2.49083,1.8151 -2.64106,1.8151 -6.04916,0 l -3.49489,-1.86132 -2.29416,2.85933 c -1.26178,1.57263 -3.10503,5.244891 -4.0961,8.160581 l -1.80195,5.30126 2.67669,5.96446 c 3.23602,7.21081 3.23272,7.16069 0.42669,6.48668 -1.69155,-0.40631 -1.38919,0.0558 1.21822,1.86204 2.50183,1.73305 4.2832,4.34787 6.393,9.38407 1.60863,3.83987 4.18305,9.68158 5.72093,12.98158 3.58233,7.68695 4.86291,13.35436 4.8934,21.65638 0.0235,6.38713 -0.0666,6.6365 -2.22555,6.16486 l -2.25,-0.49151 2.35576,1.91921 c 2.28196,1.85909 2.33306,2.22206 1.63108,11.58514 -0.39857,5.31626 -1.00866,9.61738 -1.35576,9.55805 -0.34709,-0.0593 -1.97477,-1.40968 -3.61705,-3.00079 z"
       style="fill:#000000"
       id="path357" />
  </g>
</svg>
