<?xml version="1.0" encoding="UTF-8" standalone="no"?>
<!-- Created with Inkscape (http://www.inkscape.org/) -->

<svg
   version="1.1"
   id="svg182"
   width="83.513489"
   height="130.99933"
   viewBox="0 0 83.513489 130.99933"
   sodipodi:docname="8680909cd00073b895c496a3e2a8ad65.jpg"
   xmlns:inkscape="http://www.inkscape.org/namespaces/inkscape"
   xmlns:sodipodi="http://sodipodi.sourceforge.net/DTD/sodipodi-0.dtd"
   xmlns="http://www.w3.org/2000/svg"
   xmlns:svg="http://www.w3.org/2000/svg">
  <defs
     id="defs186" />
  <sodipodi:namedview
     id="namedview184"
     pagecolor="#ffffff"
     bordercolor="#666666"
     borderopacity="1.0"
     inkscape:showpageshadow="2"
     inkscape:pageopacity="0.0"
     inkscape:pagecheckerboard="0"
     inkscape:deskcolor="#d1d1d1"
     showgrid="false" />
  <g
     inkscape:groupmode="layer"
     inkscape:label="Image"
     id="g188"
     transform="translate(-47.38611,-42.500343)">
    <path
       d="m 114.35417,170.74966 c -7.95847,-5.38866 -11.65476,-8.90669 -21.932179,-20.87449 -11.66233,-13.58049 -20.20061,-20.60714 -27.77278,-22.85583 -6.91773,-2.05434 -10.38219,-1.9063 -13.8931,0.59369 -1.62907,1.16 -3.11566,1.9475 -3.30353,1.75 -0.18786,-0.1975 0.0363,-2.7241 0.4982,-5.61466 1.1734,-7.34358 5.50614,-14.74283 11.79591,-20.14455 3.41645,-2.93407 6.45337,-6.772729 8.38603,-10.599879 1.66645,-3.3 3.97198,-7.33359 5.1234,-8.96354 1.76812,-2.50296 2.12749,-4.63492 2.31229,-13.71778 0.23378,-11.49 2.05153,-17.70045 6.63975,-22.68511 9.6201,-10.45128 29.595109,-4.14534 36.732659,11.5962 2.036,4.4903 2.66724,6.98612 2.04715,8.09415 -0.61559,1.10001 -0.15164,3.07195 1.48059,6.293 2.06505,4.07519 2.18437,4.85097 0.90893,5.90949 -0.8075,0.67016 -1.46818,1.80908 -1.46818,2.53094 0,0.72185 -0.51209,2.57925 -1.13799,4.12755 -0.62589,1.54831 -1.18839,3.9401 -1.25,5.3151 -0.0969,2.16303 -0.75551,2.62429 -4.88615,3.42211 -3.79642,0.73327 -4.89535,1.40499 -5.36593,3.27996 -0.75713,3.016619 5.31812,16.827969 11.95958,27.188659 7.82796,12.21163 9.6596,16.73974 9.67072,23.90758 0.007,4.20182 -0.63543,7.63371 -1.92855,10.31016 -1.98887,4.11649 -9.04226,13.89491 -10.01717,13.88725 -0.29948,-0.002 -2.36932,-1.23986 -4.59965,-2.75 z m -8.47549,-20.74572 c 0,-0.55 -0.43621,-0.325 -0.96937,0.5 -0.53316,0.825 -0.96937,1.95 -0.96937,2.5 0,0.55 0.43621,0.325 0.96937,-0.5 0.53316,-0.825 0.96937,-1.95 0.96937,-2.5 z m 4.03063,1.12244 c 0,-0.20765 -0.7875,-0.99515 -1.75,-1.75 -1.58606,-1.24387 -1.62143,-1.2085 -0.37756,0.37756 1.30637,1.66575 2.12756,2.19548 2.12756,1.37244 z m 2.86561,-7.12563 c -1.13681,-1.92676 -2.54116,-3.79629 -3.12078,-4.15451 -1.17614,-0.7269 -0.52606,0.55582 2.48723,4.9077 2.69344,3.88996 3.09289,3.41507 0.63355,-0.75319 z m -21.305839,-18.93076 1.77367,-3.06605 -2.33628,2 -2.33629,2 0.68272,-2 c 0.55427,-1.6237 0.2986,-1.52963 -1.35888,0.5 -3.08402,3.77645 -4.54116,6.94514 -1.6095,3.5 2.69145,-3.16285 3.67126,-2.26582 1.15659,1.05887 -0.8075,1.06762 -1.4725,2.39113 -1.47776,2.94113 -0.0113,1.18654 3.00759,-2.61552 5.50573,-6.93395 z m -11.20946,-7.11736 c 1.73233,-0.75372 2.41678,-1.38802 1.52101,-1.40955 -0.89577,-0.0215 -2.19499,-1.40634 -2.88715,-3.07736 -1.77157,-4.27695 -4.18641,-5.33315 -8.21133,-3.59148 -1.80006,0.77892 -4.17284,2.14036 -5.27284,3.02542 l -2,1.60919 2,-0.6777 c 1.1,-0.37273 2.91423,-1.2612 4.03162,-1.97437 2.12825,-1.35836 7.48656,-0.60499 7.36395,1.03536 -0.0365,0.4885 0.52275,1.2523 1.24281,1.69733 1.0167,0.62835 0.81236,1.33801 -0.91458,3.17625 -1.22309,1.30192 -2.21012,3.01312 -2.19339,3.80267 0.0214,1.00913 0.34822,0.88885 1.10031,-0.4049 0.58844,-1.01225 2.48726,-2.45713 4.21959,-3.21086 z m 4.64969,0.95774 c 0,-0.19995 -1.125,0.14903 -2.5,0.77552 -1.375,0.6265 -2.5,1.52722 -2.5,2.00162 0,0.47439 1.125,0.12541 2.5,-0.77553 1.375,-0.90093 2.5,-1.80166 2.5,-2.00161 z m 22.999999,2.70858 c 0,-0.48674 -1.2375,-1.67664 -2.75,-2.64421 l -2.75,-1.75922 2.42431,2.64421 c 2.62124,2.85899 3.07569,3.11893 3.07569,1.75922 z m -11.055259,-4.64916 c 0.61585,0.38061 0.79208,0.0119 0.43682,-0.91391 -0.81581,-2.12596 -1.65326,-1.9489 -3.30167,0.69806 -1.27071,2.04046 -1.25063,2.12557 0.21565,0.91391 0.88927,-0.73485 2.08141,-1.04898 2.6492,-0.69806 z m 5.055259,0.22124 c 0,-0.1721 -1.4625,-1.6346 -3.249999,-3.25 l -3.25,-2.93709 2.93709,3.25 c 2.737779,3.02946 3.562909,3.70965 3.562909,2.93709 z M 83.835421,103.09297 c 0.88728,-1.0691 0.88986,-1.58473 0.0106,-2.12812 -0.63819,-0.39443 -1.44755,-0.30954 -1.79855,0.18864 -0.35101,0.49819 -1.7632,1.42538 -3.1382,2.06044 l -2.5,1.15465 3.12756,0.0677 c 1.72015,0.0372 3.6545,-0.56726 4.29855,-1.34329 z M 117.56592,74.116171 c -0.50983,-1.35588 -2.62779,3.75962 -3.26575,7.88777 -0.34482,2.23127 0.0678,1.74754 1.61017,-1.88777 1.14059,-2.68827 1.88559,-5.38827 1.65558,-6 z m 0.75234,-8.46491 c 0.28984,-0.46897 -0.167,-1.70647 -1.0152,-2.75 -1.49099,-1.83433 -1.52665,-1.82421 -1.07413,0.30473 0.25744,1.21113 -0.0467,2.41311 -0.67578,2.67106 -0.62911,0.25795 -0.3829,0.50452 0.54714,0.54794 0.93004,0.0434 1.92813,-0.30476 2.21797,-0.77373 z"
       style="fill:#000000"
       id="path357" />
  </g>
</svg>
