<?xml version="1.0" encoding="UTF-8" standalone="no"?>
<!-- Created with Inkscape (http://www.inkscape.org/) -->

<svg
   version="1.1"
   id="svg372"
   width="68.67981"
   height="125.68056"
   viewBox="0 0 68.67981 125.68056"
   sodipodi:docname="8680909cd00073b895c496a3e2a8ad65.jpg"
   xmlns:inkscape="http://www.inkscape.org/namespaces/inkscape"
   xmlns:sodipodi="http://sodipodi.sourceforge.net/DTD/sodipodi-0.dtd"
   xmlns="http://www.w3.org/2000/svg"
   xmlns:svg="http://www.w3.org/2000/svg">
  <defs
     id="defs376" />
  <sodipodi:namedview
     id="namedview374"
     pagecolor="#ffffff"
     bordercolor="#666666"
     borderopacity="1.0"
     inkscape:showpageshadow="2"
     inkscape:pageopacity="0.0"
     inkscape:pagecheckerboard="0"
     inkscape:deskcolor="#d1d1d1"
     showgrid="false" />
  <g
     inkscape:groupmode="layer"
     inkscape:label="Image"
     id="g378"
     transform="translate(-112.74908,-63.235982)">
    <path
       d="m 157.84567,181.01347 c -5.3258,-5.30439 -9.56447,-10.75549 -12.89056,-16.57778 -2.72557,-4.77109 -6.41884,-10.65731 -8.20727,-13.0805 -2.73314,-3.70318 -3.06395,-4.7064 -2.07441,-6.29089 1.79301,-2.87108 -1.44636,-10.20773 -6.9269,-15.68826 -4.06184,-4.06184 -4.99022,-4.53436 -8.16496,-4.15576 -1.97012,0.23495 -4.42189,0.79324 -5.44837,1.24065 -1.67812,0.73143 -1.74469,0.58618 -0.66011,-1.44039 0.66343,-1.23963 0.98291,-3.10786 0.70996,-4.15163 -0.31364,-1.19934 0.0213,-1.89777 0.9101,-1.89777 0.77351,0 1.40638,-0.81257 1.40638,-1.80572 0,-0.99315 1.125,-3.33057 2.5,-5.19428 2.59412,-3.51614 3.21973,-6 1.5112,-6 -0.54384,0 -0.89837,-1.09256 -0.78786,-2.42791 0.11052,-1.33535 0.5329,-2.22274 0.93863,-1.97199 0.40572,0.25075 1.28394,-0.56919 1.95158,-1.822086 1.1021,-2.06822 1.06067,-2.15162 -0.44983,-0.90557 -2.04689,1.688536 -2.13907,0.7867 -0.22054,-2.15762 0.79375,-1.21815 1.91715,-6.01527 2.49645,-10.66026 1.16329,-9.32766 3.57003,-14.09126 9.27102,-18.34989 6.3081,-4.71214 13.10648,-5.56983 24.28935,-3.06434 5.68235,1.27312 13.77228,7.75406 11.95169,9.57465 -0.26287,0.26287 0.19337,2.08463 1.01387,4.04836 0.8205,1.96373 1.57259,5.8525 1.67131,8.64171 0.1254,3.54282 0.75109,5.58856 2.07598,6.78758 1.85591,1.67957 1.84823,1.7527 -0.35889,3.41753 -1.91994,1.44821 -2.05859,1.93836 -0.93222,3.295536 1.06184,1.27944 1.07629,1.89175 0.0731,3.10046 -0.6875,0.82839 -1.55915,2.96589 -1.93699,4.75 -0.66348,3.13283 -0.84373,3.2359 -5.26709,3.01194 -4.31008,-0.21822 -4.67474,-0.0325 -6.18545,3.15113 -0.88294,1.86067 -1.58216,3.99002 -1.55382,4.7319 0.0283,0.74188 0.73749,-0.30359 1.5759,-2.32327 0.8384,-2.01967 2.17339,-3.92118 2.96664,-4.22558 1.81697,-0.69723 13.40597,10.52623 13.40597,12.98307 0,0.96644 -0.74444,2.57977 -1.65431,3.58516 -1.18517,1.3096 -1.60908,3.45886 -1.4948,7.57875 0.22346,8.05647 0.83733,10.63445 4.72869,19.85845 3.5106,8.32146 4.12056,12.42058 2.48741,16.7161 -1.17271,3.08444 -6.12065,8.75862 -11.02431,12.64238 l -3.76156,2.97922 z m 16.08901,-51.97067 c 2.3128,-2.55562 1.42639,-4.8392 -3.4462,-8.87812 -4.62574,-3.83431 -5.04084,-3.4392 -1.40072,1.33324 2.02855,2.65957 2.44384,4.0507 1.92054,6.43328 -0.76398,3.47839 0.38834,3.9161 2.92638,1.1116 z m -5.43515,-2.91667 c 0,-1.6671 -0.89826,-3.63373 -2.16957,-4.75 -2.14051,-1.87948 -2.15817,-1.87821 -1.31905,0.095 0.46778,1.1 0.83366,3.2375 0.81308,4.75 -0.0227,1.66686 0.49686,2.75 1.31906,2.75 0.82411,1e-5 1.35648,-1.11655 1.35648,-2.845 z M 165.6216,97.296144 c -0.58369,-1.00375 -1.07494,-1.4324 -1.09166,-0.95256 -0.0167,0.47985 -0.77908,0.25485 -1.69413,-0.5 -1.50239,-1.23935 -1.55198,-1.1627 -0.51146,0.79041 1.05963,1.98898 3.19756,3.466076 4.01684,2.77525 0.18792,-0.15845 -0.1359,-1.10935 -0.71959,-2.1131 z m 2.87793,-13.825 c -1.35489,-1.63254 -4.56383,-2.01475 -5.41072,-0.64446 -0.29082,0.47055 0.52988,0.65318 1.82377,0.40583 1.29388,-0.24734 2.65682,0.0427 3.02875,0.64446 0.37193,0.60179 0.92978,1.09417 1.23966,1.09417 0.30989,0 0.003,-0.675 -0.68146,-1.5 z"
       style="fill:#000000"
       id="path511" />
  </g>
</svg>
