<?xml version="1.0" standalone="no"?>
<!DOCTYPE svg PUBLIC "-//W3C//DTD SVG 20010904//EN"
 "http://www.w3.org/TR/2001/REC-SVG-20010904/DTD/svg10.dtd">
<svg version="1.0" xmlns="http://www.w3.org/2000/svg"
 width="1131.000000pt" height="1280.000000pt" viewBox="0 0 1131.000000 1280.000000"
 preserveAspectRatio="xMidYMid meet">
<metadata>
Created by potrace 1.15, written by Peter Selinger 2001-2017
</metadata>
<g transform="translate(0.000000,1280.000000) scale(0.100000,-0.100000)"
fill="#000000" stroke="none">
<path d="M1090 12796 c0 -17 69 -217 108 -311 52 -128 165 -351 243 -481 30
-50 62 -106 71 -125 60 -128 97 -220 103 -257 6 -37 3 -48 -25 -89 -30 -46
-36 -83 -15 -90 6 -2 15 7 20 19 6 14 20 24 38 26 20 3 27 9 27 26 0 53 65 63
108 18 62 -65 192 -211 241 -269 51 -62 51 -63 25 -63 -35 0 -409 93 -521 129
-228 75 -442 173 -548 252 -27 20 -96 60 -153 88 -112 56 -192 107 -234 151
-16 16 -54 36 -100 50 -152 48 -372 144 -440 191 -14 11 -29 19 -32 19 -3 0
-6 -27 -6 -59 0 -66 -2 -64 80 -77 33 -5 53 -16 76 -40 21 -23 39 -34 59 -34
85 0 318 -97 485 -202 47 -29 130 -77 185 -106 139 -73 288 -185 359 -268 32
-38 76 -105 97 -150 21 -45 59 -107 84 -139 54 -69 58 -103 18 -135 -31 -24
-67 -23 -155 6 -37 12 -58 13 -103 5 -70 -13 -212 -76 -321 -141 -45 -27 -128
-73 -185 -101 -57 -29 -125 -69 -151 -89 -69 -54 -162 -170 -182 -226 -28 -81
-40 -99 -67 -102 -45 -5 -54 18 -52 147 1 83 -2 122 -12 137 -7 11 -18 41 -25
65 -6 24 -20 62 -30 84 -24 51 -67 270 -85 435 -3 30 -21 141 -40 245 l-33
190 -1 -250 c-1 -206 2 -268 18 -350 10 -55 22 -129 26 -165 4 -36 21 -121 38
-190 25 -100 31 -147 31 -235 1 -60 -2 -131 -6 -156 -7 -46 -7 -47 22 -52 35
-8 47 -29 65 -115 27 -136 58 -269 75 -324 33 -103 72 -299 65 -326 -4 -15 -9
-283 -11 -597 -1 -313 -7 -625 -12 -691 -8 -109 -13 -128 -42 -183 -34 -63
-140 -179 -194 -212 -17 -11 -41 -19 -53 -19 -22 0 -23 -4 -23 -71 0 -53 3
-68 12 -63 106 64 222 151 242 183 20 32 48 51 76 51 41 0 39 5 154 -355 19
-60 60 -195 90 -300 30 -104 75 -248 101 -320 25 -71 59 -178 74 -236 16 -58
35 -119 43 -135 42 -82 47 -257 12 -431 -8 -39 -19 -133 -24 -210 -5 -76 -16
-192 -24 -258 -8 -66 -22 -181 -30 -255 -9 -74 -22 -166 -31 -205 -8 -38 -15
-89 -15 -111 0 -23 -11 -81 -25 -128 -14 -47 -25 -99 -25 -115 0 -45 -20 -93
-56 -133 -47 -53 -64 -99 -57 -156 4 -39 1 -52 -17 -75 -22 -27 -26 -29 -79
-22 -31 3 -90 17 -131 31 -41 13 -87 26 -102 29 -37 7 -46 40 -19 69 12 12 21
25 21 29 0 14 -52 -18 -63 -39 -13 -23 -101 -94 -117 -94 -7 0 -10 -325 -10
-939 l0 -938 23 4 c12 3 42 -2 67 -11 24 -8 47 -13 51 -11 3 3 9 18 12 35 9
43 45 55 99 33 29 -12 43 -13 46 -5 2 6 13 26 25 44 17 24 31 34 56 36 42 4
103 -35 121 -77 17 -42 30 -39 30 7 0 76 12 113 46 146 30 29 34 39 34 85 0
84 7 91 100 91 78 0 79 -1 125 -40 59 -51 82 -63 90 -49 15 24 50 27 83 8 40
-23 65 -24 82 -4 16 19 51 19 97 0 47 -20 58 -19 92 6 l28 20 97 -19 c87 -18
102 -24 136 -57 21 -20 40 -33 43 -28 2 4 8 44 12 88 4 46 13 87 21 96 8 8 14
27 14 41 0 35 29 68 71 82 28 9 35 17 40 49 3 20 17 49 30 63 18 20 24 37 25
80 1 55 22 94 50 94 22 0 37 40 31 85 -5 34 -2 46 13 60 11 10 25 15 33 12 8
-3 24 17 43 57 48 96 58 128 58 176 -1 83 -30 145 -110 234 l-73 81 30 28 c22
21 39 28 62 26 18 -2 50 5 72 15 34 16 45 16 74 6 30 -11 36 -10 60 9 52 43
67 46 106 22 51 -30 85 -27 120 9 32 34 68 39 103 14 27 -19 37 -13 62 35 10
21 34 51 51 66 27 22 39 26 70 21 32 -5 39 -2 54 20 16 25 16 28 0 65 -17 36
-17 40 -1 64 20 30 53 45 101 45 26 0 39 7 54 29 27 37 26 47 -4 96 -34 55
-32 84 8 123 18 18 38 32 45 32 19 0 52 61 52 97 0 17 -5 44 -10 58 -9 23 -8
26 6 21 8 -3 25 -1 37 6 12 7 45 15 72 19 28 4 84 15 125 24 41 9 83 14 93 11
12 -3 21 5 32 30 15 36 17 37 80 39 129 4 125 3 115 29 -7 19 -4 30 11 49 20
27 25 62 10 71 -16 10 -23 83 -11 105 21 41 37 23 65 -76 15 -54 52 -168 82
-253 30 -85 65 -197 79 -249 13 -51 33 -114 45 -140 24 -54 40 -197 28 -250
-5 -20 -9 -57 -9 -83 0 -26 -7 -78 -15 -117 -8 -39 -19 -135 -24 -213 -11
-163 -55 -544 -75 -663 -8 -44 -17 -109 -21 -143 -3 -35 -14 -91 -25 -125 -10
-34 -20 -85 -23 -114 -7 -58 -30 -111 -59 -131 -10 -8 -30 -36 -43 -64 -19
-39 -22 -55 -14 -75 13 -34 3 -76 -21 -98 -16 -15 -30 -16 -84 -10 -36 3 -89
15 -118 26 -29 10 -63 19 -76 19 -37 0 -62 18 -62 45 0 13 4 27 10 30 5 3 15
15 20 25 10 18 9 19 -15 8 -15 -7 -32 -23 -40 -38 -7 -14 -39 -43 -70 -65
l-57 -39 -141 -8 c-111 -6 -155 -13 -206 -32 -36 -14 -82 -28 -101 -32 l-35
-8 40 -8 c22 -4 58 -7 80 -7 22 1 46 0 53 0 17 -1 15 -26 -4 -42 -14 -12 -14
-14 3 -20 10 -4 68 -5 128 -2 132 7 140 2 140 -85 0 -54 -1 -57 -40 -83 -22
-15 -69 -42 -105 -61 -93 -49 -183 -99 -195 -107 -5 -4 -41 -21 -80 -36 -95
-39 -115 -55 -134 -106 -13 -33 -28 -52 -66 -77 -80 -52 -85 -58 -85 -105 0
-23 -9 -58 -19 -78 -10 -19 -22 -64 -26 -100 -6 -59 -4 -71 24 -133 17 -38 50
-89 72 -114 41 -44 42 -45 36 -106 -4 -40 -1 -75 9 -101 7 -22 14 -52 14 -66
0 -14 9 -34 20 -44 10 -9 26 -42 35 -71 13 -46 21 -56 49 -68 35 -14 56 -41
56 -70 0 -17 70 -91 112 -118 16 -10 28 -30 32 -51 4 -19 15 -42 25 -51 11
-10 25 -31 31 -47 16 -38 23 -37 43 6 16 34 27 39 75 35 13 -1 22 4 22 13 0
24 39 51 70 49 24 -2 32 4 45 28 26 51 65 57 134 21 19 -11 22 -8 37 29 20 49
48 59 104 36 l40 -16 14 34 c19 45 57 70 93 61 42 -10 84 -45 99 -81 22 -53
34 -41 34 34 0 69 10 94 58 140 17 17 22 33 22 75 0 74 7 80 87 82 72 3 104
-7 138 -45 11 -12 32 -28 47 -36 23 -12 30 -12 56 3 29 16 31 16 75 -7 44 -24
46 -24 66 -6 20 18 28 18 134 0 29 -5 43 -2 57 11 21 19 38 18 164 -4 48 -8
67 -18 98 -48 21 -20 39 -35 41 -32 2 2 9 41 15 87 7 46 15 89 19 95 4 7 15
32 23 57 11 33 23 48 45 58 55 24 60 29 63 63 2 19 12 43 21 54 32 35 42 63
35 103 -5 35 -3 41 22 60 60 45 65 53 58 99 -7 49 6 73 40 73 16 0 28 16 52
68 63 135 67 160 35 261 -27 86 -128 198 -209 231 -31 12 -71 31 -87 41 -17
10 -79 34 -138 53 -59 19 -136 48 -171 65 -35 16 -90 37 -122 46 -33 10 -104
33 -159 51 -55 18 -136 40 -180 50 -91 19 -121 32 -152 66 -11 12 -33 31 -48
42 -23 15 -26 23 -21 50 6 27 13 89 16 136 1 8 -2 33 -5 55 -5 28 -2 53 8 77
14 34 14 38 -4 54 -23 21 -24 51 -3 164 20 116 52 390 59 514 3 55 10 135 15
176 5 41 14 118 20 170 6 52 18 129 26 171 8 42 14 95 14 117 0 48 30 88 58
77 24 -10 132 -42 167 -50 16 -3 49 -25 73 -47 37 -34 48 -39 70 -32 15 4 54
7 87 6 95 -2 95 -2 95 -259 0 -195 13 -347 38 -453 13 -55 24 112 23 345 -2
273 1 288 60 293 45 4 92 -33 109 -84 11 -31 9 -41 -13 -87 -30 -62 -41 -139
-26 -187 5 -19 20 -96 33 -171 15 -93 30 -148 44 -170 44 -68 105 -205 110
-247 6 -58 46 -92 107 -92 52 0 86 -25 147 -107 41 -57 58 -65 37 -19 -10 22
-9 29 6 46 23 26 39 25 75 -2 28 -21 34 -21 122 -11 76 9 110 8 184 -5 92 -16
92 -16 136 8 41 21 50 22 99 12 58 -11 116 -3 176 25 20 10 44 13 66 9 21 -4
47 -1 69 8 19 8 45 12 56 9 12 -3 28 -1 35 5 14 12 117 32 164 32 21 0 33 5
33 13 0 7 9 23 20 35 18 19 31 22 106 22 l86 0 -7 29 c-5 22 -1 38 15 59 21
28 21 31 6 60 -9 17 -16 49 -16 71 0 34 4 43 28 55 24 12 28 20 24 44 -2 16 2
40 8 53 11 20 10 25 -14 46 -15 13 -35 23 -44 23 -34 0 -62 29 -62 64 0 37
-15 46 -80 46 -42 0 -157 22 -225 43 -27 8 -86 20 -130 27 -88 13 -270 57
-297 71 -23 13 -24 65 -1 73 9 4 46 -8 87 -28 113 -55 213 -68 341 -45 33 5
130 14 215 18 136 7 163 12 220 36 59 25 72 27 142 20 67 -5 81 -4 105 13 15
11 51 23 78 26 28 3 73 15 100 25 52 20 118 16 164 -9 29 -15 104 -12 127 5
12 9 42 14 82 15 34 0 62 4 62 9 0 10 -68 71 -139 124 -41 30 -51 43 -51 66 0
16 6 34 14 41 11 9 12 17 4 34 -7 17 -7 30 1 45 12 21 30 28 86 33 20 2 29 8
27 17 -7 34 9 61 41 69 20 5 33 16 36 28 5 31 22 44 57 44 18 0 35 3 37 8 12
19 -180 132 -226 132 -25 0 -44 9 -71 35 -22 21 -48 35 -62 35 -37 0 -61 16
-88 59 -20 31 -32 39 -65 45 -29 4 -46 14 -62 37 -24 34 -73 59 -114 59 -14 0
-45 10 -68 22 -63 32 -257 49 -392 33 -46 -5 -70 -3 -99 9 -62 26 -88 21 -173
-37 l-78 -54 -138 -10 c-138 -11 -139 -11 -240 -63 -56 -28 -117 -61 -135 -72
-43 -26 -66 -18 -57 22 6 29 -6 42 -20 20 -7 -12 -166 -90 -184 -90 -7 0 -25
-9 -40 -19 -14 -10 -37 -21 -50 -22 -19 -3 -26 -13 -36 -52 -7 -27 -19 -56
-28 -64 -17 -17 -37 -10 -37 13 0 16 3 15 -67 17 -61 2 -94 27 -112 87 -11 39
-27 57 -38 46 -3 -3 -7 -39 -9 -80 -3 -80 -21 -128 -54 -146 -11 -6 -50 -10
-87 -9 l-67 2 -45 -50 c-60 -66 -67 -70 -158 -104 -93 -35 -106 -35 -219 -8
-108 25 -154 44 -219 85 -70 45 -89 67 -134 164 -68 146 -179 458 -247 693
-25 89 -66 229 -91 311 -24 81 -42 155 -39 162 3 8 18 19 33 25 16 6 42 17 58
25 17 8 48 18 71 21 39 5 41 4 47 -23 3 -16 19 -48 37 -72 28 -39 45 -50 121
-80 19 -8 28 -20 33 -46 8 -43 40 -69 109 -91 29 -10 69 -28 89 -41 21 -13 48
-24 60 -24 13 0 47 -9 75 -20 43 -16 57 -18 78 -8 20 9 34 9 58 0 31 -11 140
-9 199 4 16 4 35 0 48 -9 14 -10 34 -13 55 -10 19 3 44 -1 64 -11 31 -17 31
-16 43 11 6 15 11 60 10 98 -1 65 1 72 26 92 26 20 26 22 9 40 -23 27 -21 52
7 88 24 29 24 30 5 54 -27 34 -24 56 16 100 l35 38 -20 47 c-22 48 -17 77 15
90 9 3 55 -14 105 -39 55 -28 103 -45 124 -45 58 0 166 45 194 79 22 29 27 31
92 31 59 0 73 4 94 24 15 13 26 26 26 29 0 4 -27 36 -60 73 -84 92 -83 99 18
245 44 63 72 178 72 296 1 38 7 79 14 92 15 26 6 71 -19 101 -7 8 -23 49 -35
90 -12 41 -29 95 -37 120 -23 66 -26 87 -19 115 8 31 27 32 52 4 27 -30 56
-39 98 -29 33 7 41 5 87 -32 38 -30 58 -39 82 -37 49 4 97 -11 140 -42 22 -16
51 -29 64 -29 13 0 41 -11 63 -25 26 -16 54 -25 81 -25 24 0 52 -8 68 -19 15
-11 45 -23 66 -26 22 -4 53 -14 68 -22 34 -17 43 -12 28 15 -6 11 -11 42 -10
69 0 26 -2 65 -6 85 -6 33 -3 41 23 67 26 26 34 29 68 24 85 -14 89 -11 63 55
-10 24 -11 39 -2 61 8 24 8 34 -4 51 -11 15 -13 34 -8 70 6 47 5 51 -24 76
-39 33 -40 66 -3 104 l28 28 -29 51 c-25 45 -29 63 -32 149 -2 53 -8 110 -14
125 -15 40 -14 162 2 175 9 8 28 4 70 -13 32 -12 72 -23 90 -22 32 1 69 -19
141 -77 29 -23 49 -29 103 -34 54 -4 83 -13 138 -43 57 -31 78 -37 105 -33 31
5 41 1 83 -36 47 -42 62 -45 109 -25 18 7 49 -18 78 -64 14 -20 19 -22 36 -11
16 10 30 8 81 -9 34 -12 69 -21 76 -21 8 0 20 -7 27 -15 7 -8 21 -15 32 -15
15 0 17 3 8 19 -17 33 -11 84 15 130 29 51 29 51 10 51 -9 0 -20 11 -27 25 -9
20 -7 29 8 51 10 15 24 36 31 47 6 11 17 23 24 27 8 6 2 13 -19 24 -18 9 -39
27 -47 40 -20 31 -65 168 -58 178 7 13 44 -1 76 -28 30 -25 67 -44 137 -70 80
-29 96 -29 115 -1 36 55 105 40 174 -38 17 -19 34 -35 39 -35 5 0 17 -9 27
-20 22 -24 87 -27 125 -5 43 25 86 19 110 -15 11 -16 51 -44 88 -62 55 -27 79
-33 138 -34 39 -1 80 -7 92 -13 29 -16 69 -14 97 5 18 11 35 14 65 9 26 -4 40
-3 40 4 0 6 11 18 24 26 19 13 29 13 49 4 22 -10 30 -8 60 15 40 31 63 32 97
6 31 -24 48 -25 72 -3 15 13 41 18 109 20 l90 3 35 -35 c61 -61 65 -43 17 85
-32 87 -66 143 -97 159 -44 24 -47 83 -4 95 l22 5 -24 26 c-13 14 -33 25 -45
25 -28 0 -63 38 -76 83 -5 19 -27 57 -49 84 -22 26 -40 51 -40 55 0 5 -10 8
-22 8 -32 0 -88 36 -88 56 0 9 -32 46 -71 83 -58 54 -70 71 -65 88 8 27 89 66
137 67 33 1 45 11 118 89 49 52 81 95 79 105 -2 9 -23 24 -48 33 -31 11 -48
25 -59 47 -8 18 -26 35 -42 41 -15 5 -35 23 -43 40 -9 16 -25 32 -36 36 -22 7
-32 34 -28 79 3 25 -2 31 -27 39 -16 5 -37 13 -45 17 -18 8 -26 78 -11 93 18
18 12 27 -19 27 -34 0 -65 36 -54 64 4 9 25 30 48 46 79 57 86 65 86 109 0 27
12 65 34 109 38 77 71 183 80 261 9 72 52 177 83 201 31 24 25 25 -52 4 -77
-20 -165 -6 -250 41 -33 18 -80 36 -105 40 -29 5 -59 19 -84 41 -38 33 -95 52
-115 40 -6 -4 -27 1 -48 10 -78 33 -95 35 -165 17 -71 -18 -62 -19 -198 20
-31 9 -46 6 -105 -18 -60 -24 -86 -28 -178 -30 -99 -2 -110 -4 -135 -27 -63
-58 -116 -91 -170 -108 -68 -21 -129 -49 -197 -89 -60 -36 -75 -38 -75 -8 -1
20 -3 19 -33 -14 -134 -152 -186 -224 -256 -355 -33 -62 -87 -111 -170 -153
-23 -12 -79 -56 -124 -98 -45 -41 -102 -91 -127 -111 -55 -43 -151 -140 -165
-167 -15 -29 -119 -94 -170 -107 -16 -4 -70 -21 -120 -39 -75 -26 -109 -33
-205 -37 -126 -5 -412 13 -530 33 -41 7 -133 22 -205 34 -71 12 -179 34 -240
50 -60 15 -144 36 -185 46 -250 58 -567 191 -720 300 -25 18 -83 52 -130 75
-94 47 -231 132 -251 156 -39 47 51 12 129 -51 38 -30 51 -35 98 -35 44 0 70
-8 135 -41 45 -22 91 -39 102 -38 45 3 57 -2 102 -41 46 -40 69 -49 80 -30 15
24 54 9 82 -30 29 -41 38 -46 61 -31 15 9 136 -27 185 -55 35 -20 40 -16 25
23 -13 35 2 99 33 137 16 19 16 21 -5 31 -29 15 -33 65 -6 90 11 10 20 23 20
28 0 6 7 18 16 28 15 16 14 19 -14 33 -16 8 -36 26 -45 39 -17 26 -57 141 -57
164 0 22 35 15 72 -15 35 -27 55 -37 171 -82 l59 -23 28 32 c44 48 84 43 149
-18 109 -102 148 -117 216 -82 21 12 47 21 56 21 9 0 38 -20 64 -44 62 -59
173 -102 239 -92 32 5 54 3 75 -8 38 -20 60 -20 83 1 12 11 33 16 65 14 37 -1
49 3 61 20 12 18 21 20 53 15 32 -5 46 -1 79 20 l39 26 45 -26 44 -26 26 21
c15 12 37 21 49 20 12 0 33 0 47 0 113 2 110 3 148 -37 45 -49 52 -32 22 55
-31 94 -70 168 -95 185 -33 22 -55 46 -55 61 0 15 23 41 42 48 18 6 -19 47
-43 47 -29 0 -75 46 -87 89 -11 34 -30 63 -92 139 -6 6 -22 12 -36 12 -26 0
-74 40 -74 62 0 7 -29 39 -65 71 -84 76 -87 98 -12 132 28 14 68 25 87 25 31
0 44 10 106 78 39 42 76 87 83 100 11 21 9 24 -43 47 -41 18 -57 31 -62 50 -4
17 -18 31 -40 40 -19 8 -39 25 -46 39 -6 14 -22 33 -36 42 -21 14 -24 22 -19
54 5 42 -6 60 -38 60 -11 0 -31 7 -44 16 -23 17 -25 42 -6 102 6 19 4 22 -22
22 -66 0 -72 55 -11 99 79 56 84 63 91 120 4 31 19 76 37 107 29 53 80 216 80
260 0 44 44 160 71 186 31 32 28 33 -52 16 -76 -16 -180 2 -243 42 -25 16 -67
33 -94 38 -34 6 -64 21 -94 45 -40 32 -52 37 -99 37 -37 0 -65 7 -88 21 -28
17 -44 20 -85 15 -143 -17 -157 -18 -203 -2 -63 21 -101 20 -159 -5 -37 -17
-72 -22 -162 -25 -104 -3 -117 -5 -141 -27 -60 -54 -111 -89 -111 -74 0 8 -11
25 -24 38 -29 31 -46 62 -46 89 0 13 -13 28 -34 41 -23 13 -41 35 -53 64 -11
28 -24 45 -35 45 -24 0 -50 29 -43 49 4 12 -4 21 -27 32 -24 10 -34 22 -38 43
-3 16 -12 32 -20 36 -8 4 -25 12 -37 18 -28 15 -2213 17 -2213 3 0 -18 85 -82
155 -116 140 -70 183 -130 112 -160 -18 -7 -39 -22 -48 -32 -23 -27 -40 -93
-29 -114 26 -48 -2 -170 -74 -323 -25 -55 -45 -103 -44 -107 2 -5 59 46 128
111 69 65 132 119 141 120 19 0 40 -23 63 -68 10 -18 32 -50 50 -70 19 -20 41
-55 50 -76 9 -22 26 -46 37 -54 29 -20 49 -72 49 -125 0 -50 39 -119 89 -158
17 -13 47 -36 65 -51 21 -18 45 -28 66 -28 25 0 42 -10 77 -45 74 -76 84 -80
192 -78 53 0 102 -4 109 -9 19 -16 91 -30 147 -29 28 1 57 -3 65 -9 13 -9 12
-13 -6 -28 -11 -9 -28 -29 -37 -44 -10 -16 -40 -40 -69 -55 -28 -16 -60 -34
-72 -40 -12 -7 -29 -13 -39 -13 -10 0 -30 -6 -45 -14 -15 -7 -63 -24 -107 -37
-70 -21 -100 -24 -235 -23 -162 1 -478 29 -541 48 -24 7 -51 27 -76 58 -21 25
-72 85 -113 133 -170 196 -287 346 -345 445 -21 36 -73 121 -115 190 -129 210
-148 244 -201 357 -44 95 -88 204 -156 393 l-20 55 -57 3 c-31 2 -56 1 -56 -2z
m500 -1541 c107 -25 259 -59 337 -75 78 -17 152 -34 165 -39 36 -14 127 -120
223 -262 65 -94 89 -129 152 -211 24 -32 40 -58 35 -58 -4 0 -26 15 -49 34
-45 36 -86 52 -284 116 -125 40 -179 69 -179 95 0 17 -52 62 -123 105 -32 19
-86 53 -120 74 -53 34 -73 41 -139 47 -43 4 -102 17 -131 29 -50 21 -56 27
-90 96 -21 41 -37 79 -37 84 0 17 40 11 240 -35z m772 -171 c136 -43 334 -84
404 -84 30 0 70 8 96 20 25 11 71 21 103 22 55 3 59 1 66 -22 4 -14 7 -92 8
-173 1 -116 6 -174 26 -269 26 -125 32 -232 15 -243 -14 -9 -68 25 -192 118
-56 43 -128 87 -158 98 -53 20 -61 28 -210 216 -85 108 -183 231 -218 274 -34
44 -60 79 -58 79 2 0 55 -16 118 -36z m848 -55 c0 -21 10 -39 34 -62 44 -42
47 -56 30 -114 -8 -26 -17 -75 -19 -108 -3 -33 -14 -91 -24 -130 -19 -70 -20
-147 -6 -297 7 -65 -8 -84 -37 -48 -16 19 -18 41 -18 170 0 116 -6 178 -26
288 l-26 141 21 47 c19 42 20 49 7 63 -19 21 -10 56 17 69 37 18 47 14 47 -19z
m397 -9 c24 -41 18 -56 -17 -45 -23 7 -54 60 -45 75 13 21 41 8 62 -30z
m-2022 -398 c8 -41 -27 -139 -87 -242 -40 -69 -52 -137 -43 -249 8 -107 8 -98
-1 -305 -6 -148 -6 -149 21 -200 15 -28 41 -65 56 -81 28 -30 29 -34 29 -135
0 -74 5 -114 15 -134 20 -38 19 -56 -5 -56 -10 0 -40 -7 -66 -16 -41 -14 -61
-14 -166 -3 -132 14 -201 6 -267 -31 -20 -11 -72 -38 -116 -61 -44 -23 -92
-50 -107 -60 -14 -11 -36 -19 -47 -19 -26 0 -71 42 -71 66 0 24 -29 54 -52 54
-27 0 -58 36 -58 68 0 20 -24 53 -96 132 -52 58 -106 125 -118 150 -29 56 -60
192 -52 225 9 35 33 44 143 55 210 21 363 68 488 150 121 80 175 154 240 333
11 31 30 57 53 75 19 15 43 36 54 47 100 109 169 187 196 223 19 23 37 42 42
42 5 0 11 -13 15 -28z m1932 -721 c54 -26 137 -73 185 -103 48 -30 131 -78
185 -107 223 -117 374 -256 449 -411 20 -41 58 -105 85 -141 27 -37 49 -76 49
-87 0 -18 -51 -72 -68 -72 -4 0 -41 9 -82 21 -52 14 -91 19 -128 16 -59 -6
-250 -88 -342 -148 -32 -20 -117 -67 -189 -104 -119 -60 -137 -73 -207 -148
-77 -83 -116 -145 -129 -205 -9 -41 -45 -68 -73 -53 -29 15 -32 32 -31 155 0
94 -3 117 -20 151 -12 21 -21 48 -21 59 0 12 -12 44 -27 73 -21 40 -25 55 -16
64 9 9 22 6 55 -13 24 -14 60 -28 82 -32 21 -4 47 -13 57 -19 26 -16 33 -4 19
36 -9 24 -10 39 -3 52 8 13 7 30 -3 58 -12 34 -12 43 2 73 20 41 49 51 111 37
55 -13 65 1 37 52 -16 30 -17 39 -6 69 11 30 11 39 -4 61 -15 23 -15 31 -4 65
12 38 12 39 -24 70 -44 39 -45 62 -6 102 l30 30 -31 55 c-29 50 -32 62 -31
140 0 47 -3 96 -8 108 -5 13 -12 51 -16 84 -8 77 -6 77 123 12z m942 -480
c202 -52 525 -123 689 -152 61 -11 161 -35 221 -54 217 -68 410 -91 487 -59
50 21 146 34 160 23 7 -6 14 -78 19 -197 4 -122 13 -215 25 -267 10 -44 21
-115 24 -158 10 -121 -6 -119 -196 28 -91 70 -116 84 -213 117 -60 20 -124 37
-141 37 -17 1 -46 12 -65 26 -63 45 -108 65 -275 120 -160 53 -204 74 -204
100 0 24 -112 110 -205 157 -22 12 -55 32 -73 46 -28 21 -49 27 -120 32 -52 4
-105 15 -132 27 -41 18 -49 28 -79 92 -32 69 -35 101 -9 101 6 0 46 -9 87 -19z
m-3946 -179 c42 -41 47 -70 17 -112 -12 -17 -23 -53 -26 -89 -6 -54 -4 -63 18
-89 22 -26 26 -42 31 -142 4 -61 4 -144 1 -184 -6 -59 -3 -78 13 -111 18 -36
18 -46 8 -95 -6 -30 -16 -64 -22 -75 -6 -11 -25 -74 -42 -139 -18 -66 -39
-129 -47 -140 -8 -12 -14 -44 -14 -76 l0 -55 23 29 c15 19 29 27 39 23 24 -8
25 -258 2 -281 -34 -35 -47 -16 -78 119 -24 108 -25 117 -27 605 -3 727 -1
832 17 847 21 16 42 7 87 -35z m5691 -76 c-4 -19 3 -32 37 -65 l43 -41 -13
-58 c-8 -31 -17 -88 -21 -127 -5 -38 -16 -95 -25 -125 -14 -46 -15 -80 -10
-207 6 -134 5 -153 -9 -153 -28 0 -36 38 -36 174 0 101 -6 169 -25 270 -30
163 -30 176 -6 225 18 34 18 39 4 54 -19 19 -10 64 15 70 43 11 53 8 46 -17z
m401 -16 c10 -22 15 -43 12 -47 -12 -12 -56 16 -71 45 -17 33 -13 42 19 42 16
0 27 -11 40 -40z m-4006 -95 c49 7 53 5 100 -34 45 -38 52 -41 94 -35 28 4 47
2 51 -5 4 -6 14 -11 23 -11 8 0 29 -10 46 -22 17 -13 49 -28 71 -33 21 -6 43
-17 47 -25 11 -22 67 -266 80 -351 10 -67 9 -121 -7 -236 -6 -40 -5 -42 22
-45 37 -4 47 -26 74 -156 11 -57 37 -165 57 -240 63 -241 63 -240 67 -627 2
-198 2 -369 -1 -381 -4 -18 -10 -20 -57 -16 -51 4 -57 2 -132 -49 l-79 -53
-120 -8 c-132 -8 -188 -19 -213 -40 -31 -27 -211 -110 -225 -105 -9 3 -12 16
-9 39 5 32 4 33 -15 15 -28 -25 -157 -87 -181 -87 -11 0 -30 -8 -43 -19 -13
-10 -37 -22 -54 -28 -25 -8 -31 -17 -37 -52 -12 -68 -45 -93 -68 -51 -8 16
-21 20 -60 20 -38 0 -55 6 -79 26 -17 14 -31 32 -31 40 0 8 -7 29 -16 46 -22
42 -34 21 -34 -60 0 -123 -45 -170 -151 -158 l-57 7 -45 -53 c-48 -56 -98 -87
-184 -112 -68 -21 -105 -20 -207 4 -113 26 -211 73 -267 126 -30 29 -104 173
-129 249 -7 22 -18 54 -26 70 -33 72 -120 339 -189 575 -41 140 -81 278 -89
305 -22 71 -20 91 18 170 19 39 37 87 41 107 9 49 28 73 49 65 24 -9 74 -122
82 -182 10 -82 70 -154 141 -170 37 -7 43 -15 52 -59 8 -36 50 -67 124 -92 29
-9 65 -26 82 -38 16 -11 37 -20 45 -18 8 1 42 -8 75 -21 47 -18 66 -21 83 -14
16 7 38 7 73 -1 28 -7 55 -9 61 -6 5 4 28 6 50 6 22 -1 51 3 65 9 17 6 32 5
54 -7 19 -9 41 -13 59 -9 20 4 37 1 52 -9 36 -25 46 -19 62 34 11 37 12 58 5
78 -13 34 -4 69 21 82 24 13 26 33 5 50 -21 18 -19 38 10 76 l25 33 -21 35
c-23 40 -19 54 29 99 l29 28 -18 37 c-22 42 -24 73 -7 90 20 20 44 14 128 -28
55 -28 93 -40 121 -40 69 0 147 30 191 73 40 39 41 39 99 33 53 -5 61 -3 84
20 14 14 25 30 25 36 0 6 -25 37 -55 70 -80 87 -82 108 -13 201 18 25 42 58
53 74 22 31 30 73 44 233 4 58 14 117 21 132 11 23 9 34 -18 90 -17 35 -36 86
-43 113 -6 28 -22 78 -35 113 -28 74 -29 81 -8 111 l16 23 33 -32 c31 -30 36
-32 84 -25z m1981 -315 c0 -40 -48 -168 -78 -210 -42 -56 -54 -123 -52 -283 0
-84 -2 -215 -5 -293 l-7 -140 33 -55 c18 -30 45 -69 61 -87 27 -31 28 -37 28
-138 0 -75 4 -113 15 -135 19 -36 13 -49 -26 -49 -16 0 -46 -7 -67 -15 -31
-14 -50 -14 -130 -4 -118 15 -219 8 -269 -18 -21 -12 -76 -40 -123 -64 -47
-25 -96 -52 -110 -62 -27 -19 -67 -22 -90 -7 -8 5 -24 28 -35 52 -14 30 -29
46 -50 53 -47 16 -55 24 -55 58 0 26 -18 51 -101 142 -55 61 -109 126 -119
146 -26 49 -52 168 -48 216 3 36 6 39 53 55 28 9 77 17 110 17 69 2 196 28
307 65 100 33 240 126 290 194 40 54 91 160 108 223 7 26 23 48 47 66 21 16
48 41 63 57 14 15 57 63 95 105 39 42 85 95 104 119 18 23 37 40 42 36 5 -3 9
-22 9 -44z m-1071 -1365 c47 -51 47 -54 24 -98 -23 -42 -42 -123 -35 -151 2
-11 14 -31 26 -44 18 -20 21 -38 24 -133 l4 -109 -25 0 c-13 0 -44 -7 -67 -15
-24 -8 -45 -14 -47 -11 -2 2 -7 132 -10 289 -7 306 -5 317 42 317 14 0 38 -17
64 -45z m-2474 -1249 c66 -20 99 -36 125 -60 45 -42 63 -48 97 -31 33 16 118
4 143 -20 12 -13 16 -64 22 -293 3 -152 11 -295 17 -317 6 -22 11 -58 12 -80
1 -29 5 -16 15 45 7 50 13 183 13 326 1 226 2 242 21 259 37 34 105 3 139 -62
17 -33 13 -59 -14 -111 -28 -52 -34 -146 -14 -199 6 -15 17 -71 24 -123 20
-137 29 -174 52 -206 24 -33 77 -139 87 -171 6 -18 1 -25 -32 -42 -37 -19 -41
-25 -57 -91 -16 -65 -16 -72 -1 -89 29 -32 20 -64 -29 -99 -25 -17 -45 -39
-45 -48 0 -9 16 -34 35 -57 47 -54 51 -76 26 -126 l-21 -41 29 -25 c23 -22 29
-36 34 -86 4 -42 12 -68 26 -83 13 -14 21 -36 21 -59 0 -20 5 -37 11 -37 20 0
43 -75 44 -147 1 -83 0 -83 -85 -36 -25 14 -98 43 -164 64 -65 22 -139 50
-165 63 -25 13 -68 30 -96 39 -27 8 -93 29 -145 45 -120 38 -190 57 -262 72
-42 8 -69 21 -99 48 -88 77 -91 81 -83 105 10 27 15 91 14 177 -1 36 4 78 9
94 9 23 8 32 -9 53 -25 32 -25 38 -1 160 25 128 43 279 71 618 12 143 22 227
51 416 10 70 19 135 19 146 0 28 21 45 50 40 14 -2 65 -16 115 -31z m962 -115
c73 -53 94 -109 53 -146 -21 -19 -50 -14 -50 9 0 10 -19 18 -57 26 -93 18
-127 29 -147 43 -25 18 -14 34 34 48 22 7 40 18 40 25 0 12 22 20 66 23 12 0
39 -12 61 -28z m763 -250 c0 -9 -24 -21 -41 -21 -5 0 -9 7 -9 15 0 9 9 15 25
15 14 0 25 -4 25 -9z m674 -81 c5 -19 24 -79 42 -132 22 -68 28 -98 20 -98
-25 0 -49 38 -43 68 l6 29 -111 12 c-62 7 -137 20 -167 30 -31 11 -81 22 -111
26 -30 4 -64 11 -74 15 -17 6 -16 9 12 28 28 21 58 27 257 55 17 2 59 4 95 3
l64 -1 10 -35z m1552 -1529 c83 -60 103 -110 60 -150 -25 -23 -46 -22 -46 4 0
14 -22 21 -132 44 -32 7 -68 21 -80 31 l-23 19 52 23 c29 13 53 28 53 35 0 11
21 18 61 22 9 0 34 -12 55 -28z"/>
</g>
</svg>
