<?xml version="1.0" encoding="UTF-8" standalone="no"?>
<!-- Created with Inkscape (http://www.inkscape.org/) -->

<svg
   version="1.1"
   id="svg182"
   width="56.35117"
   height="81.228989"
   viewBox="0 0 56.35117 81.228989"
   sodipodi:docname="8680909cd00073b895c496a3e2a8ad65.jpg"
   xmlns:inkscape="http://www.inkscape.org/namespaces/inkscape"
   xmlns:sodipodi="http://sodipodi.sourceforge.net/DTD/sodipodi-0.dtd"
   xmlns="http://www.w3.org/2000/svg"
   xmlns:svg="http://www.w3.org/2000/svg">
  <defs
     id="defs186" />
  <sodipodi:namedview
     id="namedview184"
     pagecolor="#ffffff"
     bordercolor="#666666"
     borderopacity="1.0"
     inkscape:showpageshadow="2"
     inkscape:pageopacity="0.0"
     inkscape:pagecheckerboard="0"
     inkscape:deskcolor="#d1d1d1"
     showgrid="false" />
  <g
     inkscape:groupmode="layer"
     inkscape:label="Image"
     id="g188"
     transform="translate(-91.824412,-61.385501)">
    <path
       d="m 128.40978,137.68855 c -3.09603,-2.70927 -7.90597,-7.20276 -10.68875,-9.98554 l -5.0596,-5.0596 1.66039,-3.26446 1.66039,-3.26446 -2.52518,2.32845 c -2.35559,2.17206 -2.71691,2.22931 -5.3796,0.85238 -1.56992,-0.81184 -3.75334,-2.48051 -4.85204,-3.70816 -2.4039,-2.68603 -8.417967,-6.61173 -10.894847,-7.11165 -1.25853,-0.25401 -0.20506,-1.26073 3.55426,-3.3965 4.336087,-2.46346 5.401787,-3.59414 5.655167,-5.999999 0.17172,-1.63049 1.07172,-3.5562 2,-4.27936 1.56202,-1.21687 1.5233,-1.44978 -0.5197,-3.12586 -1.21411,-0.99606 -1.92661,-2.09188 -1.58333,-2.43516 0.34328,-0.34328 -0.0134,-0.63845 -0.79252,-0.65594 -0.996137,-0.0224 -0.840447,-0.46763 0.52446,-1.5 1.39963,-1.05863 1.53911,-1.47707 0.5,-1.5 -1.10754,-0.0244 -1.03604,-0.33931 0.30887,-1.36025 0.9625,-0.73064 1.75,-2.05477 1.75,-2.94251 0,-0.88774 1.31811,-2.2957 2.92913,-3.12879 2.98841,-1.54537 3.4364,-2.39421 4.5053,-8.53665 0.33499,-1.925 1.42758,-4.56402 2.42799,-5.8645 l 1.81891,-2.36449 3.40934,3.47671 c 1.87513,1.91219 5.53933,4.41009 8.14267,5.55089 2.60333,1.1408 6.24298,3.22565 8.08811,4.633 1.84513,1.40735 3.72478,2.22347 4.17699,1.81361 0.45222,-0.40987 0.50425,-0.19202 0.11564,0.48411 -1.1955,2.08001 1.12915,4.95077 5.38929,6.65534 3.61949,1.44823 3.94364,1.84582 2.9772,3.65164 -1.23568,2.30889 -8.67413,7.96369 -10.47562,7.96369 -0.65724,0 -2.05222,0.95706 -3.09996,2.12679 -1.88785,2.10766 -1.8788,2.14589 1.00606,4.249999 1.60108,1.16777 3.99878,3.03026 5.32824,4.13888 l 2.41719,2.01568 -2.31692,2.94549 c -2.12773,2.70496 -2.28958,3.74195 -1.98206,12.69904 0.2563,7.46515 -0.0715,10.81763 -1.39717,14.28883 -0.95263,2.49441 -2.05089,4.53529 -2.4406,4.53529 -0.3897,0 -3.24167,-2.21667 -6.3377,-4.92594 z m 14.93419,-46.594909 c 4.00316,-3.05336 3.59563,-4.82026 -1.73955,-7.54207 -2.13217,-1.08775 -3.87667,-2.40821 -3.87667,-2.93435 0,-0.52614 -1.17956,-1.7295 -2.62123,-2.67412 -2.31998,-1.52011 -2.75096,-1.54427 -3.75,-0.21018 -0.62083,0.82902 -2.59127,2.36355 -4.37877,3.41005 -1.7875,1.0465 -3.25,2.27867 -3.25,2.73815 0,0.45948 -1.59314,1.50108 -3.54031,2.31466 -1.94718,0.81358 -3.29167,1.88156 -2.98776,2.37329 0.30391,0.49173 -0.24045,1.13439 -1.20969,1.42814 -1.55278,0.4706 2.596,0.0644 6.73776,-0.6597 0.825,-0.14423 3.35956,-2.16591 5.63235,-4.49263 4.66496,-4.77562 6.56717,-5.21132 8.80478,-2.01669 1.3698,1.95566 1.37641,2.31115 0.0567,3.04969 -1.9555,1.09435 -1.94014,3.12185 0.018,2.37046 1.33911,-0.51387 1.33618,-0.24054 -0.0257,2.39301 -1.47831,2.85874 -1.45354,2.97314 0.64382,2.97314 1.19971,0 3.66854,-1.13438 5.48629,-2.52085 z"
       style="fill:#000000"
       id="path361" />
  </g>
</svg>
