<?xml version="1.0" encoding="UTF-8" standalone="no"?>
<!-- Created with Inkscape (http://www.inkscape.org/) -->

<svg
   version="1.1"
   id="svg526"
   width="64.766418"
   height="122.32072"
   viewBox="0 0 64.766418 122.32072"
   sodipodi:docname="8680909cd00073b895c496a3e2a8ad65.jpg"
   xmlns:inkscape="http://www.inkscape.org/namespaces/inkscape"
   xmlns:sodipodi="http://sodipodi.sourceforge.net/DTD/sodipodi-0.dtd"
   xmlns="http://www.w3.org/2000/svg"
   xmlns:svg="http://www.w3.org/2000/svg">
  <defs
     id="defs530" />
  <sodipodi:namedview
     id="namedview528"
     pagecolor="#ffffff"
     bordercolor="#666666"
     borderopacity="1.0"
     inkscape:showpageshadow="2"
     inkscape:pageopacity="0.0"
     inkscape:pagecheckerboard="0"
     inkscape:deskcolor="#d1d1d1"
     showgrid="false" />
  <g
     inkscape:groupmode="layer"
     inkscape:label="Image"
     id="g532"
     transform="translate(-103.64645,-49.432859)">
    <path
       d="m 155.59029,168.26612 c -8.36779,-4.18623 -13.43767,-9.51942 -19.361,-20.36653 -9.79022,-17.92836 -16.79706,-25.07681 -26.66752,-27.20647 -3.10689,-0.67035 -5.76009,-1.29112 -5.89598,-1.37951 -0.1359,-0.0884 0.45916,-2.23344 1.32236,-4.76679 0.97046,-2.84814 2.81429,-5.55557 4.83111,-7.09388 l 3.26166,-2.48778 4.31311,2.44989 c 2.37222,1.34744 5.83756,3.78838 7.70078,5.4243 1.86321,1.63592 3.70949,2.96229 4.10286,2.9475 0.93288,-0.0351 -5.2315,-5.34345 -10.09814,-8.69586 -3.08857,-2.12759 -3.52038,-2.79079 -2.27192,-3.48946 0.99373,-0.55612 2.5263,-0.27419 4.31333,0.79347 l 2.77193,1.65609 -2.5,-2.09643 c -1.375,-1.15304 -2.90724,-2.10644 -3.40499,-2.11867 -0.49774,-0.0122 -0.17947,-0.82393 0.70727,-1.80376 1.36725,-1.5108 1.42757,-2.30862 0.39689,-5.25 -0.66845,-1.90767 -1.56221,-4.00902 -1.98613,-4.66969 -0.52306,-0.81517 0.52401,-1.58913 3.2581,-2.40829 3.33163,-0.99818 4.03822,-1.6556 4.08297,-3.79879 0.0298,-1.42544 0.14226,-7.3627 0.25,-13.19391 0.19555,-10.58367 0.20201,-10.60914 3.69589,-14.56508 2.7564,-3.12094 4.83433,-4.32744 9.78049,-5.6788 6.97899,-1.90677 10.76806,-1.31809 18.91683,2.93894 3.74213,1.95494 4.23991,2.01458 4.59,0.54994 0.27004,-1.12976 0.63264,-0.78398 1.16108,1.1072 0.42263,1.5125 1.39463,2.75 2.16001,2.75 0.76537,0 1.39159,0.45 1.39159,1 0,0.55 -0.45,1 -1,1 -1.44058,0 -1.22211,2.05289 0.5853,5.5 0.86514,1.65 1.64899,4.88386 1.7419,7.18636 0.13714,3.39876 -0.3833,4.76275 -2.76623,7.25 -3.47374,3.6258 -4.36757,3.73239 -8.17611,0.975 -1.58667,-1.14875 -1.08486,-0.48922 1.11514,1.46562 2.48831,2.21103 4.15579,3.09485 4.41223,2.33864 0.44731,-1.31908 3.14924,-3.6325 4.30246,-3.68382 0.39307,-0.0175 0.5005,3.1182 0.23871,6.9682 -0.29686,4.36586 -0.0954,7 0.53531,7 0.55621,0 1.01129,1.07041 1.01129,2.37868 0,3.12596 -5.23957,5.57731 -8.10121,3.79018 -2.9062,-1.81495 -4.14386,-1.49529 -2.93756,0.7587 0.56738,1.06015 0.76007,2.63515 0.4282,3.5 -0.33188,0.86484 -0.10526,1.57244 0.50358,1.57244 1.62557,0 1.34892,2.07519 -0.55748,4.18174 -1.56008,1.72387 -1.52872,1.98371 0.5,4.14319 1.45491,1.54868 2.16886,3.59413 2.17785,6.23952 0.007,2.16455 1.35134,7.76055 2.98662,12.43555 2.77541,7.93442 2.97413,9.48145 2.98662,23.25 0.0157,17.2827 0.44835,16.83429 -10.8092,11.20237 z m -1.17742,-59.45237 c 0,-0.55 -0.45,-1 -1,-1 -0.55,0 -1,0.45 -1,1 0,0.55 0.45,1 1,1 0.55,0 1,-0.45 1,-1 z m -13,-7.44098 c 0,-0.24254 -0.45,-0.7191 -1,-1.05902 -0.55,-0.33992 -1,-0.14148 -1,0.44098 0,0.58246 0.45,1.05902 1,1.05902 0.55,0 1,-0.19844 1,-0.44098 z m -13,-5.55902 c 0,-0.55 -0.45,-1 -1,-1 -0.55,0 -1,0.45 -1,1 0,0.55 0.45,1 1,1 0.55,0 1,-0.45 1,-1 z m 0,-12.3578 c 0,-1.27054 -0.4619,-0.70323 -1.91971,2.3578 -1.12265,2.35727 -1.10183,2.38918 0.36454,0.55887 0.85535,-1.06762 1.55517,-2.38012 1.55517,-2.91667 z m 6.84154,2.30939 c -3.55863,-2.65718 -4.85234,-10.66415 -2.3797,-14.7283 l 1.65686,-2.72329 -2.05935,2.36078 c -2.17847,2.49734 -2.42306,4.30517 -1.41101,10.42924 0.44367,2.68472 1.38827,4.20412 3.239,5.20996 3.68079,2.00046 4.06896,1.77737 0.9542,-0.54839 z M 152.9203,73.91343 c -0.004,-2.69517 -0.34493,-4.69361 -0.75743,-4.44098 -1.38625,0.849 -0.77342,9.3413 0.6741,9.3413 0.0499,0 0.0874,-2.20514 0.0833,-4.90032 z m 11.99257,0.31699 c 0,-1.91398 -0.51096,-2.91667 -1.4863,-2.91667 -1.64445,0 -2.50638,2.77372 -1.59775,5.14157 0.94999,2.47562 3.08405,0.93605 3.08405,-2.2249 z m -36.81689,-6.60417 c -0.31922,-0.79773 -0.55618,-0.56078 -0.60416,0.60417 -0.0434,1.05416 0.19293,1.64479 0.52522,1.3125 0.33229,-0.3323 0.36781,-1.1948 0.0789,-1.91667 z m 26.84077,-7.77386 c -0.3214,-0.52003 -2.03325,-1.94319 -3.80412,-3.16258 l -3.21976,-2.21705 2.75,2.97521 c 1.5125,1.63637 2.76368,3.85059 2.78041,4.9205 0.0282,1.80636 0.10352,1.81974 1.05412,0.18736 0.56304,-0.96686 0.76075,-2.1834 0.43935,-2.70344 z M 143.6819,53.15782 c -0.67703,-0.27393 -2.02703,-0.2906 -3,-0.037 -0.97297,0.25354 -0.41903,0.47766 1.23097,0.49804 1.65,0.0204 2.44606,-0.18707 1.76903,-0.46099 z"
       style="fill:#000000"
       id="path712" />
  </g>
</svg>
